<svg width="263" height="170" viewBox="0 0 263 170" fill="none" xmlns="http://www.w3.org/2000/svg">
<g clip-path="url(#clip0_153_867)">
<path d="M158.09 131.317C158.09 146.311 146.1 158.466 131.31 158.466C116.519 158.466 104.529 146.311 104.529 131.317V39.3611C104.529 24.3672 116.519 12.2122 131.31 12.2122C146.1 12.2122 158.09 24.3672 158.09 39.3611V131.317Z" fill="#FF9B00"/>
<path d="M251.39 131.317C251.39 146.311 239.4 158.466 224.609 158.466C209.819 158.466 197.829 146.311 197.829 131.317V39.3611C197.829 24.3672 209.819 12.2122 224.609 12.2122C239.4 12.2122 251.39 24.3672 251.39 39.3611V131.317Z" fill="#277BC0"/>
<path d="M205.839 19.0872C216.362 8.54568 233.423 8.54568 243.946 19.0872C254.469 29.6288 254.469 46.7201 243.946 57.2616L150.46 150.913C139.937 161.454 122.876 161.454 112.353 150.913C101.83 140.371 101.83 123.28 112.353 112.738L205.839 19.0872Z" fill="#FEB139" fill-opacity="0.95"/>
<path d="M112.539 19.0872C123.062 8.54568 140.124 8.54568 150.647 19.0872C161.17 29.6288 161.17 46.7201 150.647 57.2616L57.1603 150.913C46.6373 161.454 29.5762 161.454 19.0532 150.913C8.53016 140.371 8.53017 123.28 19.0532 112.738L112.539 19.0872Z" fill="#277BC0" fill-opacity="0.95"/>
</g>
<defs>
<clipPath id="clip0_153_867">
<rect width="263" height="170" fill="white"/>
</clipPath>
</defs>
</svg>
