<svg width="61" height="30" viewBox="0 0 61 30" fill="none" xmlns="http://www.w3.org/2000/svg">
<path d="M0.708252 30C0.708252 25.6242 4.01306 22.9731 10.0719 22.9731H20.537C27.2151 22.9731 27.2151 14.0426 20.5085 14.0426H12.8439C7.43282 14.0426 7.41479 7.65771 12.8259 7.65771H21.0879C27.5344 7.65771 32.3248 13.1323 32.3248 19.149C32.3248 25.1657 27.8538 30 19.8698 30H0.708252Z" fill="#F09D1C"/>
<path d="M12.8259 0H31.5531C34.8579 0 34.4168 0.912246 35.5184 2.55319L44.1411 17.234C44.697 17.9578 44.5539 17.9651 45.0992 17.234L54.1359 2.18784C57.4407 -2.73495 62.2243 1.68793 59.4703 6.06382L46.3766 27.7659C44.7396 30.6891 44.8532 30.697 43.183 27.7659C37.678 18.9348 36.4109 15.3471 31.0474 6.70211C30.8445 6.37511 30.313 6.38297 30.0893 6.38297H12.8439C5.49864 6.38297 5.49864 15.3191 12.8259 15.3154H20.537C25.2989 15.3154 25.2704 21.7021 20.5085 21.7021H12.8439C5.13268 21.7021 0.708252 17.5033 0.708252 11.4865C0.708252 5.46978 5.66545 0 12.8259 0Z" fill="#277BC0"/>
</svg>
